<svg width="1512" height="213" viewBox="0 0 1512 213" fill="none" xmlns="http://www.w3.org/2000/svg">
<path fill-rule="evenodd" clip-rule="evenodd" d="M378 158C378.683 158 379.364 157.991 380.043 157.974C394.306 178.536 418.08 192 445 192C468.53 192 489.657 181.713 504.129 165.391C514.394 170.27 525.878 173 538 173C549.456 173 560.342 170.562 570.168 166.176C584.642 184.351 606.96 196 632 196C660.651 196 685.74 180.748 699.59 157.92C702.883 157.773 706.124 157.424 709.301 156.885C723.472 178.059 747.608 192 775 192C800.173 192 822.596 180.226 837.062 161.885C848.333 191.755 877.186 213 911 213C946.263 213 976.13 189.896 986.289 158C1010.82 157.912 1032.72 146.639 1047.15 129.015C1047.05 130.663 1047 132.326 1047 134C1047 177.63 1082.37 213 1126 213C1161.26 213 1191.13 189.896 1201.29 158C1203.5 157.992 1205.69 157.893 1207.86 157.706C1222.1 178.419 1245.96 192 1273 192C1300.07 192 1323.97 178.381 1338.2 157.62C1340.77 157.871 1343.37 158 1346 158C1357.54 158 1368.5 155.526 1378.38 151.079C1392.57 164.658 1411.81 173 1433 173C1476.63 173 1512 137.63 1512 94C1512 50.3695 1476.63 15 1433 15C1421.46 15 1410.5 17.4741 1400.62 21.9208C1386.43 8.34198 1367.19 0 1346 0C1318.93 0 1295.03 13.6191 1280.8 34.3801C1278.23 34.1287 1275.63 34 1273 34C1270.69 34 1268.4 34.0992 1266.14 34.2935C1251.9 13.5812 1228.04 0 1201 0C1165.74 0 1135.87 23.1041 1125.71 55.0005C1101.18 55.0883 1079.28 66.3608 1064.85 83.9853C1064.95 82.3367 1065 80.6744 1065 79C1065 35.3695 1029.63 0 986 0C950.737 0 920.87 23.1041 910.711 55.0005C885.656 55.0901 863.349 66.8438 848.938 85.1146C837.667 55.2446 808.814 34 775 34C770.467 34 766.023 34.3818 761.699 35.1149C747.528 13.941 723.392 0 696 0C667.349 0 642.26 15.2522 628.41 38.0801C618.269 38.5337 608.626 40.8989 599.832 44.8242C585.358 26.6494 563.04 15 538 15C514.47 15 493.343 25.2869 478.871 41.6088C468.606 36.73 457.122 34 445 34C444.317 34 443.636 34.0087 442.957 34.0259C428.694 13.4643 404.92 0 378 0C349.279 0 324.137 15.3271 310.308 38.2482C308.227 38.0838 306.123 38 304 38C274.604 38 248.958 54.0553 235.353 77.8752C227.908 41.9778 196.105 15 158 15C134.896 15 114.108 24.9183 99.662 40.7294C93.0759 38.9496 86.1489 38 79 38C35.3695 38 0 73.3695 0 117C0 160.63 35.3695 196 79 196C102.104 196 122.892 186.082 137.338 170.271C143.924 172.05 150.851 173 158 173C187.396 173 213.042 156.945 226.647 133.125C234.092 169.022 265.895 196 304 196C332.721 196 357.863 180.673 371.692 157.752C373.773 157.916 375.877 158 378 158Z" fill="white"/>
</svg>
