<svg width="57" height="71" viewBox="0 0 57 71" fill="none" xmlns="http://www.w3.org/2000/svg">
<path d="M25.4998 20.0873C28.5458 20.9035 31.0458 22.2204 32.9999 24.0381C34.954 25.8558 36.2544 28.0278 36.901 30.554C37.5825 33.0601 37.5408 35.7401 36.7761 38.594C36.0188 41.4204 34.7148 43.7622 32.8643 45.6193C31.0412 47.4837 28.8154 48.7108 26.1867 49.3006C23.5856 49.8977 20.7757 49.7919 17.7572 48.983L6.93156 46.0823L14.6742 17.1866L25.4998 20.0873ZM18.9367 42.7697C21.5986 43.483 23.8652 43.3109 25.7368 42.2536C27.6083 41.1962 28.9007 39.3367 29.6139 36.6749C30.3272 34.013 30.1414 31.7427 29.0566 29.8638C27.9718 27.9849 26.0985 26.6888 23.4367 25.9756L20.1026 25.0822L15.6026 41.8764L18.9367 42.7697Z" fill="white"/>
<path d="M51.9182 19.0665L51.0659 39.4787H44.8868L44.0346 19.0665H51.9182ZM48.0829 50.3879C46.8045 50.3879 45.7533 50.0186 44.9295 49.2799C44.134 48.5129 43.7363 47.5754 43.7363 46.4674C43.7363 45.331 44.134 44.3793 44.9295 43.6123C45.7533 42.8452 46.8045 42.4617 48.0829 42.4617C49.3329 42.4617 50.3557 42.8452 51.1511 43.6123C51.975 44.3793 52.3869 45.331 52.3869 46.4674C52.3869 47.5754 51.975 48.5129 51.1511 49.2799C50.3557 50.0186 49.3329 50.3879 48.0829 50.3879Z" fill="white"/>
</svg>
